<?xml version="1.0" encoding="UTF-8"?>
<svg width="1200pt" height="1200pt" version="1.1" viewBox="0 0 1200 1200" xmlns="http://www.w3.org/2000/svg">
 <path d="m1072.5 1117.5c-31.875-3.75-63.75-11.25-93.75-22.5-41.25-13.125-120-39.375-151.88-45-69.375 41.25-131.25 56.25-226.88 56.25-279.38 0-506.25-226.88-506.25-506.25s226.88-506.25 506.25-506.25 506.25 226.88 506.25 506.25c0 116.25-26.25 200.62-84.375 281.25 7.5 52.5 35.625 99.375 78.75 131.25 22.5 16.875 31.875 46.875 18.75 73.125-7.5 18.75-26.25 31.875-46.875 31.875zm-472.5-911.25c-217.5 0-393.75 176.25-393.75 393.75s176.25 393.75 393.75 393.75c80.625 0 123.75-11.25 181.88-46.875 24.375-15 50.625-15 144.38 13.125-7.5-16.875-11.25-35.625-15-54.375-5.625-28.125-1.875-58.125 15-82.5 46.875-63.75 67.5-129.38 67.5-223.12 0-217.5-176.25-393.75-393.75-393.75z"/>
</svg>
