<svg fill="#1C2033" width="52" height="52" viewBox="0 0 64 64" xmlns="http://www.w3.org/2000/svg"><path d="M55.4 1H8.8C4.5 1 1 4.5 1 8.8C1 8.8 1 8.2 1 55.3C1 59.5 4.5 63 8.8 63H55.3C59.5 63 63.1 59.5 63.1 55.2V8.8C63 4.5 59.6 1 55.4 1ZM28.3 47.9C28.3 49.9 26.6 51.6 24.6 51.6H13.1C11.1 51.6 9.4 49.9 9.3 47.9V12.7C9.3 10.7 11 9 13 9H24.4C26.4 9 28.1 10.7 28.1 12.7L28.3 47.9ZM55 32.4C55 34.4 53.3 36.1 51.3 36.1H40C38 36.1 36.3 34.4 36.3 32.4V12.7C36.3 10.7 38 9 40 9H51.3C53.3 9 55 10.7 55 12.7V32.4Z"/></svg>